<?xml version="1.0" encoding="UTF-8" standalone="no"?>
<!-- Created with Inkscape (http://www.inkscape.org/) -->

<svg
   width="481.49222mm"
   height="93.07251mm"
   viewBox="0 0 481.49222 93.07251"
   version="1.1"
   id="svg1"
   xml:space="preserve"
   xmlns="http://www.w3.org/2000/svg"
   xmlns:svg="http://www.w3.org/2000/svg"><defs
     id="defs1" /><g
     id="layer1"
     transform="translate(196.65511,131.24931)"><path
       style="fill:#cccccc;fill-opacity:1;stroke-width:0.529167;stroke-linejoin:round"
       d="m 50.874817,-132.9531 c -1.388733,0.0756 -2.736028,0.15043 -4.040024,0.22422 -30.33674,1.71481 -34.538061,2.59545 -4.631477,2.02595 -2.742706,-0.16895 -0.59447,-0.46239 4.697288,-0.82463 10.233042,-0.701 30.722908,-1.57547 51.162434,-2.3191 -4.115935,0.51967 -10.580197,1.52551 -19.980414,3.19644 -13.536202,2.54808 -24.516658,4.64167 -30.813537,5.84896 0.131593,-0.0252 -6.88848,1.32496 -6.756887,1.29972 2.146061,-0.31436 4.250703,-0.62411 6.774461,-0.97892 -0.01018,0.001 0.951012,-0.13304 0.940831,-0.1316 10.267256,-0.75267 14.628597,-0.75885 14.810658,-0.27723 2.267757,-0.28724 4.978441,-0.60734 7.407661,-0.90897 18.926608,-3.86122 32.838399,-7.34733 33.290029,-8.25539 8.24802,-0.29132 15.31743,-0.54514 21.37629,-0.74389 17.91015,-0.18497 45.77905,-0.64433 72.86906,-1.49378 16.87359,-0.5293 34.39432,-1.23902 49.80974,-2.14704 -11.64266,-0.20048 -27.99487,-0.12961 -49.87485,0.42835 0,0 0,0 0,0 -2.63565,0.0672 -5.34975,0.14135 -8.14206,0.22293 -54.83717,1.0196 -105.927935,3.03815 -138.899203,4.83398 z m 196.916113,-5.48526 c 3.95249,0.068 7.4459,0.1611 10.22829,0.28366 0.29168,0.0129 0.57546,0.0261 0.85107,0.0396 19.61397,-1.13825 34.7597,-1.76403 38.99544,-2.07916 2.43117,-0.18087 -0.7276,-0.67126 -25.36514,-0.0541 -4.46643,0.42498 -9.40587,0.81627 -14.50622,1.16642 -3.301,0.22495 -6.7202,0.43839 -10.20344,0.64356 z m 11.07936,0.3233 c -0.0118,6.8e-4 -0.83685,0.0486 -0.84868,0.0493 -18.10199,1.04458 -37.76319,2.298 -59.96007,3.89536 0,0 0,0 0,0 -6.49365,0.46722 -13.02524,0.95099 -19.55441,1.45093 2.9035,0.07 5.72328,0.13961 7.12382,0.20485 4.33085,-0.12314 8.48927,-0.24686 12.47925,-0.3713 28.92694,-0.90244 49.32936,-1.84 59.978,-2.69542 12.03131,-0.97278 12.68665,-1.94966 0.78209,-2.53371 z m -73.23934,5.60043 c -4.19091,0.11911 -8.23021,0.24494 -12.74145,0.36272 14.05667,-0.0691 16.50781,-0.18727 12.74145,-0.36272 z m -7.12382,-0.20485 c -3.1726,-0.0765 -6.38339,-0.15204 -10.55965,-0.22421 -2.47667,0.23684 -20.80261,1.93362 -44.67377,4.48023 8.52499,-1.63753 13.42862,-3.17802 9.11746,-4.32278 -24.10811,2.42526 -44.795476,4.85857 -61.945359,6.98798 -3.378589,0.68927 -6.945387,1.3881 -10.592183,2.08753 2.071776,-0.50984 3.28203,-0.92062 3.184522,-1.17856 -3.837708,0.48609 -5.313365,0.68388 -8.593923,1.11049 0.01377,-0.001 -0.03717,0.005 -0.02501,0.004 -0.437541,0.0569 -6.605938,0.86362 -7.043479,0.92052 -22.837701,2.99699 -31.903017,4.2533 -15.916749,1.09901 -1.124498,0.10256 -3.676756,0.34809 -4.801253,0.45066 -7.888235,1.41099 -8.820262,2.02616 -9.158456,2.54048 -6.512443,0.14034 -13.2050824,0.31885 -19.9531183,0.50895 0.5844705,-0.12172 1.2007798,-0.25893 1.77068421,-0.37475 -0.99381711,0.10172 -3.22956701,0.33974 -4.22338411,0.44146 -0.2798275,0.008 -0.6828101,0.0182 -0.9626376,0.0267 0.2532893,0.002 0.4248576,0.001 0.6781469,0.003 -27.5580971,2.86571 -60.3295701,6.67909 -93.7121281,11.78869 0,0 -5e-6,1e-5 -5e-6,1e-5 0.01959,-0.003 -2.82321,0.43464 -2.80362,0.43164 -19.51779,3.69685 -9.11705,3.85011 3.168214,3.886 8.532097,0.0236 18.311674,-0.002 21.582484,0.83302 -7.007337,1.486224 -13.992991,2.973903 -21.13102,4.513366 -21.437488,4.623475 -38.249618,8.41286 -53.764218,12.485335 -9.37952,2.461778 -15.64093,4.371677 -19.0647,5.65834 -2.66383,1.00107 -2.70349,1.278775 0.1294,0.767979 2.19274,-0.394796 5.93219,-1.202073 11.85158,-2.406019 -4.68278,1.029185 -8.52989,1.999579 -11.76466,2.921814 -5.01848,1.43169 -8.01619,2.557207 -10.03227,3.593381 -1.89966,0.976342 -2.48897,1.650713 -2.10618,1.970521 0.65026,0.543269 5.50171,0.05964 12.93326,-0.847003 3.89339,-0.465677 13.26688,-1.623034 19.19913,-2.39164 0,0 1e-5,-10e-7 1e-5,-10e-7 13.9272,-1.803127 32.07102,-4.3584 46.56455,-7.145889 -4.40416,1.984785 -1.00119,1.894181 7.334084,0.551205 10.607805,-1.70898 31.837247,-5.920117 54.114442,-10.192349 0.07367,0.211329 -0.424042,0.568541 -1.381215,1.045277 -29.879416,4.054973 -45.445315,8.929671 -20.715713,8.084255 -20.662221,7.889607 -34.75134,14.522877 17.529439,6.536635 18.588593,-1.994983 31.899323,-3.283756 39.7119424,-4.039044 -17.0481684,3.936964 -52.6113044,13.443671 -80.1703524,20.166242 20.35995,-4.047974 41.022245,-8.021859 54.11541,-10.735338 6.7574,0.281104 28.2384721,-1.126501 50.895582,-2.725666 1.792145,0.01036 3.932555,-0.01571 6.801614,-0.114858 0.454908,-0.0301 0.854789,-0.06138 1.309697,-0.09148 2.563358,-0.07129 4.595304,-0.218796 6.08316,-0.420887 6.189245,-0.420803 12.368457,-0.852715 18.492486,-1.292429 10.169532,-0.729898 20.245977,-1.481703 29.962737,-2.229223 -33.811851,6.641921 -35.223042,6.875812 3.113599,-0.234001 13.569377,-1.049488 25.263748,-2.012747 37.026378,-2.974387 -26.588771,3.462757 -51.593713,7.447218 -69.821018,10.579714 -1.459802,0.250835 -2.871786,0.495392 -4.233712,0.733046 -11.537998,1.719909 -42.9270763,6.508874 -54.4650744,8.228782 -17.1026436,2.570091 -29.3737276,4.326988 -24.7171356,2.975892 -26.262633,4.939692 -21.080695,4.732695 -5.380467,2.568978 13.03985,-1.797079 54.911594,-7.986148 88.876888,-13.037268 -3.297502,0.490435 61.192489,-9.12874 57.894989,-8.638305 10.54176,-1.454456 19.45184,-2.739487 27.65888,-3.954296 4.44872,-0.126357 7.67028,-0.402545 8.50214,-0.953175 7.05078,-0.725079 8.65837,-0.873606 12.73649,-1.280149 -1.51928,0.02472 -2.74642,0.0314 -3.94906,0.03661 -1.5722,0.133632 -4.60927,0.385234 -6.18147,0.518867 1.10671,-0.171496 2.19957,-0.341769 3.2492,-0.507301 0.79433,0.0074 1.9496,-0.0073 2.93227,-0.01154 1.52187,-0.129397 3.26037,-0.268818 4.78224,-0.398215 -1.16249,-0.01454 -3.81278,-0.03698 -4.74944,-0.0515 2.09558,-0.336092 3.87405,-0.637461 5.72069,-0.947014 5.19796,-0.237943 12.74188,-0.577425 21.79438,-0.963827 -0.0117,0.0012 0.0368,-0.0022 0.025,-0.001 5.88831,-0.252335 2.9448,-0.122792 8.83311,-0.375127 -0.1347,-0.256137 -1.60251,-0.44168 -3.94616,-0.57675 3.95541,0.05349 7.82766,0.12449 11.53011,0.221279 -0.0541,0.0024 2.73836,-0.122524 2.68423,-0.120107 18.73147,-0.839861 34.82216,-1.602058 59.46337,-2.808725 0.007,-3.39e-4 0.83044,-0.04059 0.83739,-0.04093 1.38264,-0.78253 0.92181,-1.368558 -0.88678,-1.802085 -8.27592,-1.988957 -41.62931,-0.698988 -59.60474,-0.383766 0,0 0,0 0,0 -11.77734,0.206578 -16.50169,-0.06847 -0.0848,-2.239577 4.79403,-0.63398 11.57468,-1.449268 20.38688,-2.423482 -2.35782,-0.10092 -9.98807,-0.154006 -20.48438,-0.150355 -17.94413,0.0063 -39.97863,0.16532 -62.29183,0.419981 1.44601,-0.210967 4.12514,-0.589221 5.57115,-0.800187 21.5999,-0.908472 35.02102,-1.344732 56.62092,-2.253204 23.46843,-1.012911 36.67186,-2.002691 59.55545,-4.533671 2.97638,-0.32907 6.00607,-0.67411 9.30684,-1.05314 -2.95755,-0.26559 -6.07285,-0.51456 -9.35527,-0.7539 -17.54144,-1.27903 -38.44439,-2.09827 -59.84831,-2.66828 -3.90092,-0.10389 -7.789,-0.19878 -11.64593,-0.28587 3.83195,-0.0373 7.72078,-0.0829 11.62991,-0.13704 20.2535,-0.28064 42.14122,-0.80822 59.73828,-1.61144 13.54653,-0.61901 26.03629,-1.50414 33.76731,-2.55484 -11.33448,0.0718 -22.68495,0.41852 -33.81454,0.79239 0,0 -10e-6,0 -10e-6,0 -19.8027,0.66416 -39.93,1.61027 -59.7327,2.27442 0,0 0,0 -1e-5,0 -21.41653,0.71209 -35.5701,0.71486 -35.42054,-1.22907 -15.6899,0.75394 -25.0576,1.15952 -31.50775,1.35559 15.95813,-1.85391 34.16815,-3.91372 50.90321,-5.91833 -5.62566,-0.0339 -12.75155,0.32123 -20.80326,0.95446 7.51625,-0.84419 16.64049,-2.41473 36.46514,-4.7501 12.95481,-1.52621 32.85547,-3.64373 58.88667,-5.70092 -16.91703,0.23706 -42.15668,0.52618 -59.07371,0.76324 -30.78846,0.42359 -75.80629,1.10656 -95.00846,1.17985 -4.469451,0.74169 -9.814169,1.50053 -16.397305,2.24006 -3.705644,-0.39558 -4.579503,-0.92268 -3.235899,-1.55113 1.78083,-0.25739 3.205191,-0.48371 5.142534,-0.75912 3.334494,0.0823 8.444499,0.0933 14.49067,0.0702 11.33583,-1.88116 16.18399,-3.61837 15.98962,-4.46977 -0.94596,0.0975 -2.05182,0.20021 -2.96999,0.29713 1.00092,-0.16622 1.97887,-0.3322 2.92488,-0.4974 0.0766,0.0553 0.0298,0.13331 0.0452,0.20027 16.83299,-1.73459 37.33114,-3.50647 59.08888,-5.17245 -3e-5,-2.4e-4 -6e-5,-4.8e-4 -9e-5,-7.2e-4 z m 18.66782,46.121339 c -2.6577,0.118707 -4.92626,0.236752 -7.58396,0.355459 0.25132,0.477909 -3.75252,1.17349 -13.79538,2.17783 -3.10097,0.10966 -5.48836,0.178066 -8.02979,0.254958 6.83264,0.07362 18.66806,0.199545 32.21823,0.388047 0,0 1e-5,0 1e-5,0 -0.45472,-0.0063 8.87011,0.128323 8.41539,0.121994 22.59461,0.137743 29.33317,-0.316554 25.75714,-1.064311 -3.49482,-0.730775 -16.913,-1.651923 -34.29004,-2.159472 -0.8874,-0.02591 -1.78485,-0.05076 -2.6916,-0.07447 z m -29.40913,2.788209 c -2.16216,-0.02325 -5.07693,-0.04732 -7.23909,-0.07057 -0.65031,0.06426 -2.74239,0.273601 -3.3927,0.337859 2.84696,-0.04638 6.46651,-0.141359 10.63179,-0.267284 z m -7.23909,-0.07057 c 7.30947,-0.722555 19.34426,-1.900284 20.23115,-1.987099 -0.0104,4.42e-4 -0.0146,5.63e-4 -0.025,0.001 1.50119,-0.147696 -7.40553,0.650846 -22.76563,1.962349 0.45533,0.0057 2.10419,0.01806 2.55951,0.02375 0,0 0,0 0,0 z m -248.245362,23.932958 c -0.06186,0.0123 -7.082274,1.413026 -7.144131,1.425324 -9.500637,1.902111 -17.592227,3.544932 -25.684517,5.236048 5.07308,-0.345819 14.43913,-2.293935 25.708564,-4.95125 0,0 2e-6,0 2e-6,0 2.296442,-0.541577 4.677904,-1.114391 7.120082,-1.710122 z m -32.828648,6.661372 c -1.60597,0.109447 -2.86068,0.08221 -3.60315,-0.147361 -13.97964,3.171764 -21.56532,5.228456 -23.1863,5.734767 -0.76917,0.240499 -0.7131,0.277313 0.018,0.145959 2.48265,-0.444865 12.8151,-2.816791 26.77141,-5.733365 z M -5.8692157,-118.16256 c -16.3488453,-0.13019 -29.8230783,0.19347 -35.8209083,1.26307 10.871861,-0.46015 22.855732,-0.88339 35.8209083,-1.26307 z m -35.8209083,1.26307 c -52.851291,2.23694 -25.43435,1.66054 -3.11199,0.9791 0.450345,-0.38121 1.557296,-0.70184 3.11199,-0.9791 z m 41.00693357,-1.73114 c 10.29688303,-1.05349 19.49453143,-1.94735 27.34089143,-2.67467 1.120937,-0.2005 2.274645,-0.40485 3.707977,-0.64037 -7.35616,0.56966 -5.635962,0.44496 -12.992123,1.01461 -2.073152,-0.59071 -9.1407685,0.48841 -18.05674543,2.30043 z m 31.04886843,-3.31504 c 1.481952,-0.11475 1.97348,-0.15186 3.455432,-0.26661 1.350555,-0.26455 5.045096,-0.97161 6.691087,-1.28931 -3.99867,0.58572 -7.45058,1.11289 -10.146522,1.55587 z m 3.455432,-0.26661 c -0.551179,0.10794 -1.81098,0.34832 -2.362158,0.45626 6.531289,-0.59578 12.009304,-1.07555 15.899643,-1.41138 5.323566,-0.4597 7.937714,-0.67268 7.060587,-0.60814 0.0105,-0.001 0.01454,-0.002 0.02501,-0.004 1.407261,-0.10436 -8.497218,0.63675 -7.089957,0.5324 0.525983,-0.0397 -14.059142,1.07391 -13.533159,1.03417 1.2e-5,1.8e-4 2.4e-5,3.7e-4 3.6e-5,5.6e-4 z m 134.12637,-10.73146 c 0.2958,-0.0283 3.70804,-0.35198 3.50049,-0.334 -34.9705,-0.28034 -42.68857,-0.21563 -38.23958,-0.14193 10.49328,0.17384 24.2458,0.3021 34.73909,0.47593 z M -2.9981009,-118.1361 c 6.0040208,0.0654 12.3366289,0.19442 18.7775199,0.35286 -2.125465,0.64729 -7.438101,1.58631 -21.2413275,3.50389 -2.9918327,0.20852 -5.8806245,0.36791 -8.5550725,0.43305 -5.892575,1.04032 -10.376568,1.87177 -14.448811,2.63627 -3.540676,0.47138 -5.62409,0.75373 -9.164766,1.2251 10.584334,-2.65879 23.345832,-5.78611 34.6324548,-8.1512 z m 77.5553019,2.30662 c 3.900199,0.1371 7.839813,0.27606 10.792415,0.35321 68.020494,-6.38836 -96.750034,9.10276 -28.729543,2.7144 6.467574,-1.10701 11.469553,-1.9606 17.937128,-3.06761 z m -135.456289,8.36666 c 0.888324,-0.11905 4.974126,-0.17524 11.117279,-0.20867 -2.142733,0.71714 -4.536238,1.51124 -4.883745,1.69844 -0.0076,0.002 -0.01523,0.004 -0.02284,0.005 -3.291359,-0.8682 -7.790497,-1.28297 -6.210714,-1.49468 8e-6,-1.7e-4 1.5e-5,-3.5e-4 2.3e-5,-5.2e-4 z m 14.108606,-0.23399 c 0.156892,-8.9e-4 0.155709,-0.002 0.315725,-0.003 -0.610314,0.13225 -1.500544,0.31104 -2.110858,0.44328 0.607111,-0.1498 1.106833,-0.2688 1.795113,-0.44074 7e-6,0 1.4e-5,0 2e-5,0 z m 202.354692,-6.28471 c -1.61544,0.14766 -3.25504,0.30374 -4.92772,0.4702 0.75454,-0.11676 1.27933,-0.2198 1.815,-0.3239 1.07332,-0.0331 2.10139,-0.0868 3.11271,-0.14652 z m -141.307979,8.53881 c 0.293377,0.0695 0.670242,0.13783 0.990432,0.20708 -27.00154,4.53011 -35.766097,6.068552 -33.533684,5.616906 2.336096,-0.472626 15.3672433,-2.823166 32.543252,-5.823986 z m 101.611309,-4.95506 c 2.23201,-0.11069 5.19418,-0.2363 8.92796,-0.37324 -6.03986,0.42018 -8.69491,0.80011 -8.66809,1.12239 -6.24481,-0.15784 -7.92643,-0.36746 -0.25985,-0.7491 -1e-5,-10e-6 -1e-5,-3e-5 -2e-5,-5e-5 z m -92.360111,6.56965 c 1.828203,0.26507 3.723213,0.51873 5.732402,0.77678 -24.8845319,4.426149 -55.153108,8.878965 -69.915757,10.923559 21.42845,-4.102559 43.420105,-8.155959 64.183355,-11.700339 z m 37.736521,4.80561 c 1.564162,0.286039 2.468723,0.545137 2.606776,0.775696 -2.799497,0.04052 -0.697913,0.01 -3.497411,0.05048 0.0074,-0.263219 0.31273,-0.53912 0.890635,-0.826175 z m -106.042371,7.112541 c 1.188719,-0.104983 1.84037,-0.07484 2.073047,0.06115 -9.427849,1.286656 -14.910672,1.889672 -4.330893,0.207007 0.897567,-0.125883 1.646435,-0.214314 2.257844,-0.268183 z m 114.588933,-6.608912 c 26.737533,-1.542159 76.071038,-3.459999 106.683228,-1.610709 -22.53084,1.084472 -72.38372,1.316894 -110.455455,1.852468 1.401787,-0.08676 2.17032,-0.149345 3.772228,-0.241747 z m -5.871329,0.377101 c -0.13179,0.256051 -1.378836,0.471248 -4.100803,0.640634 -1.272579,0.05681 -1.973746,0.07843 -2.852685,0.110977 1.746349,-0.222527 1.804576,-0.234411 3.550925,-0.456939 -0.02479,-0.02361 -0.01396,-0.04863 -0.03308,-0.07243 0.979405,-0.06799 2.263368,-0.146669 3.435781,-0.222254 -4.7e-5,2e-6 -9.4e-5,5e-6 -1.41e-4,8e-6 z m 28.216169,2.565332 c -0.755828,-0.01043 1.483876,-0.08564 7.47434,-0.229149 -1.792929,0.08448 -2.887364,0.113485 -4.521154,0.185286 -0.329192,0.0016 -2.810776,0.04575 -2.953189,0.04381 z m -26.225349,12.653647 c 0.0081,2.4e-5 0.017,-5.7e-5 0.0251,-7.1e-5 0.476884,0.103394 3.348145,0.370443 5.913586,0.617344 -15.327171,3.162084 -9.352278,1.635331 -5.938691,-0.617311 2e-6,1.3e-5 4e-6,2.5e-5 6e-6,3.8e-5 z m 6.653704,0.0084 c 0.769476,0.0049 1.509045,-6.21e-4 2.278521,0.0042 -0.143686,0.02989 -0.139971,0.0272 -0.283656,0.05709 -0.767806,-0.02641 -1.318707,-0.03998 -1.994875,-0.06126 3e-6,-1.7e-5 7e-6,-3.4e-5 10e-6,-5.1e-5 z m 48.502063,-1.65908 c 0.56279,-0.0257 0.90388,-0.0348 1.43615,-0.05716 -6.33105,0.811206 -13.24428,1.741536 -20.59163,2.764782 -0.18419,-0.0064 -0.54061,-0.01927 -0.7248,-0.02563 0.36174,-0.109543 0.15435,-0.117574 -0.62634,-0.02198 -5.66995,-0.199904 -10.766852,-0.379929 -15.708224,-0.569926 3.422527,-0.219067 6.368259,-0.395771 9.364553,-0.578149 4.512847,-0.05062 8.991591,-0.103329 15.403701,-0.210662 2.48133,-0.422924 5.24172,-0.793864 8.14383,-1.135104 1.03243,-0.05006 2.35958,-0.1226 3.30279,-0.165574 z m 20.68344,-0.08045 c 0.93179,0.286717 0.94195,0.658006 3.04878,0.90638 -6.87438,0.756672 -13.83799,1.577634 -20.85778,2.472381 -4.78831,-0.06683 -9.97062,-0.187397 -15.33121,-0.353471 -64.470069,5.897273 97.61029,-8.922563 33.14021,-3.02529 z m 11.62466,0.0056 c -1.74781,0.176957 -3.51521,0.365596 -5.28801,0.554959 -2.01658,-0.112153 0.26887,-0.302996 5.28801,-0.554959 z m -128.539407,6.578571 c -2.31698,0.550469 -4.505498,1.090381 -6.458195,1.594223 -0.816656,0.0096 -1.72315,0.03499 -2.604305,0.05573 -7.1940452,1.355503 -12.3796031,2.430925 -15.06406543,3.130543 2.71631693,0.05417 6.52714103,-0.05163 11.31109543,-0.297093 0.284313,-0.03273 0.388553,-0.0403 0.672866,-0.07303 0.05998,0.01158 0.123374,0.02283 0.190107,0.03376 -0.311836,0.01714 -0.558519,0.02416 -0.862947,0.03965 -13.0339625,1.502204 -15.745064,1.452658 -11.31109446,0.297094 -5.06031694,-0.100921 -6.27971394,-0.76871 -1.93645314,-2.243914 6.6681135,-0.515567 12.2559186,-0.774827 17.0005176,-0.886629 2.676271,-0.504261 5.921656,-1.083295 9.062498,-1.649966 -8e-6,-1.21e-4 -1.6e-5,-2.42e-4 -2.4e-5,-3.64e-4 z"
       id="path280"
       transform="translate(-13.706294,9.3006993)" /><path
       style="fill:#338000;fill-opacity:1;stroke-width:1"
       d="m 31.080458,-76.828483 c -0.44101,0.300629 -1.10029,0.390242 -1.56592,0.334249 -0.84739,-1.279529 -1.28161,-2.6772 -2.30526,-4.10951 -0.95049,-1.750587 -1.90286,-1.84479 -0.73184,-0.10122 0.56391,1.157738 0.71267,2.233265 1.17526,1.39456 0.8661,1.76235 1.16966,3.089604 2.06553,4.955281 0,0 0.0622,0.121603 0.0498,0.18387 -0.0384,0.192042 -0.26621,0.737167 -0.35972,0.464516 -0.43348,-1.263904 -0.70728,-1.655911 -1.1113,-2.764411 -0.85539,1.248562 -1.79744,3.164845 -3.12326,4.536259 -1.08834,2.236811 -2.84924,1.295075 -3.80412,0.95015 -1.37855,0.470859 -0.6862,-3.074119 0.86705,-3.33301 1.10079,-1.336894 2.62939,-2.558633 3.01459,-4.16617 2.25177,-1.631897 -0.81071,-3.107833 -0.86687,-4.61422 -1.25625,-1.926705 -1.73663,1.504529 -2.41517,2.63459 -1.76276,2.616397 0.63931,0.311138 1.26575,0.445245 -0.94472,1.506481 -1.55797,2.061924 -3.22737,3.48112 -1.10768,0.975505 -2.11894,3.201899 -4.14106,3.535735 -0.90931,-0.782536 0.72381,-2.805906 1.57522,-3.614042 1.76223,-0.670334 2.26364,-2.976579 3.23999,-4.496038 0.15826,-1.870424 1.86118,-2.439623 2.64682,-3.18907 -1.10796,-1.391035 -1.99697,-2.998061 -2.95774,-4.39624 -1.5101,-2.119016 0.45802,-0.33972 1.15444,0.35699 -0.68318,-1.814858 -1.63918,-2.245932 -2.67892,-4.19708 -0.82534,-0.947361 0.50871,-1.452032 -0.91407,-1.971425 -0.47805,-1.342692 -1.35702,-2.549844 -1.87409,-3.944065 -1.067,-1.251504 -2.01345,-3.266531 -3.69548,-4.646781 -0.22496,1.12339 1.29165,2.31805 1.60528,3.496501 0.91271,1.394207 2.02777,2.900433 3.02005,4.41238 0.79919,1.493519 1.72374,3.046552 2.32731,4.75773 0.27126,2.13837 -1.56542,-1.598417 -1.72536,-2.37814 -0.61715,-1.165365 -1.57415,-3.258291 -1.61563,-2.017594 -0.4963,-1.804924 -1.70578,-3.100555 -2.62804,-4.895506 -1.13695,-2.102691 -2.39246,-4.234601 -3.38842,-6.465611 -1.00089,-1.96025 -3.80601,-3.23259 -2.67963,-4.63677 1.74181,1.85898 3.43194,4.34146 5.82857,5.31455 1.57491,1.06154 3.89011,2.19199 5.26479,3.89289 1.41575,1.997747 1.87022,4.664505 3.58384,6.413981 1.69512,1.449527 3.28232,3.409024 4.89416,4.830469 1.16988,1.861769 4.11305,2.347856 5.03401,4.139232 1.62426,-0.127325 1.18852,2.673903 -0.19906,1.580309 0.98435,1.724049 3.01683,3.747704 0.51753,4.975466 -1.14704,0.05923 -0.0866,1.089566 -0.28705,1.589137 -0.18778,0.467995 -0.418,0.977663 -0.83466,1.261693 z m -5.10878,-4.876242 c 0.0898,-0.165403 0.0272,0.268313 0,0 z m -0.0671,-0.18131 c 0.0795,-0.11157 0.0795,0.11157 0,0 z m 5.1628,3.480459 c -0.5388,-0.953901 -0.73757,0.51416 0,0 z m -0.60352,0.0353 c -0.19292,-0.225448 -0.11778,0.312972 0,0 z m -2.54664,1.454891 c -0.52972,-2.001305 -1.18201,-1.261434 0,0 z m 1.84148,-0.58301 c -0.0575,-0.726587 -0.70234,0.34435 0,0 z m -2.17571,-0.78212 c -0.0795,-0.11157 -0.0795,0.11157 0,0 z m -6.66923,-2.02913 c -0.20262,-0.268616 -0.36877,0.37105 3e-5,2e-5 z m 4.8665,-2.12995 c -1.21115,-2.434604 -1.28951,-0.663859 0,0 z m -1.11893,-1.495 c -0.50317,-1.224161 -0.51867,0.12497 0,0 z m -0.48376,-0.7778 c -0.59076,-1.469231 -2.43401,-3.008829 -0.75951,-0.65125 0.11701,-0.03156 0.92817,1.299045 0.75951,0.65125 z m 6.04639,0.0618 c 2.2731,0.289994 0.27534,-2.00789 -0.18803,-0.48442 -1.42025,-0.567427 -1.68307,-2.821394 -3.14633,-3.123289 0.92266,1.18915 1.96343,3.116572 3.33436,3.607709 z m -7.67618,-2.42592 c -0.24263,-0.22679 -0.24263,0.22679 0,0 z m 6.54472,-0.49889 c -0.32249,-0.346512 -0.0375,0.652848 0,0 z m -7.53933,-0.40248 c -0.0795,-0.11157 -0.0795,0.11157 0,0 z m 0,-0.12432 c -0.0795,-0.11157 -0.0795,0.11157 0,0 z m 0,-0.12433 c -0.0795,-0.11157 -0.0795,0.11157 0,0 z m 0.16972,-0.0889 c -0.16229,-0.32913 0.004,0.385108 0,0 z m 0.5962,-4.49804 c -0.3203,-0.02268 0.0247,0.383142 0,0 z m -0.57944,-0.82121 c -0.34003,-0.288112 0.24906,0.381123 0,0 z m -3.61808,-1.90736 c -0.14435,-0.385453 -0.31659,0.535395 0,0 z m -5.28807,-5.807345 c -0.24636,-0.1307 -0.0577,0.14007 0,0 z m -0.58654,-1.99064 c 0.53137,-1.66213 -2.54877,-3.53167 -0.73364,-1.12177 0.2029,0.30988 0.39865,1.06414 0.73364,1.12177 z m 6.34353,35.932905 c 0.32608,-1.697355 4.11166,-3.955115 1.60477,-1.078384 -0.38173,0.226041 -1.11903,1.485764 -1.60477,1.078384 z m 2.56927,-2.66347 c -0.0593,-1.201505 1.32864,0.162645 0,0 z m -10.43857,-8.42992 c 1.01557,-0.923664 2.72691,-3.767052 -0.22153,-2.39218 -0.0437,-1.342639 3.84705,-1.390489 3.51522,-3.52832 1.33896,-0.942421 1.40251,-2.564871 1.93008,-3.16838 1.69866,-0.93918 4.23565,-0.768984 2.29048,1.31702 -3.71123,3.355682 3.95439,-1.309584 3.17717,0.889324 -1.95608,0.785547 -3.18725,1.322723 -5.1435,2.273916 -2.37123,0.836572 -2.85003,4.390488 -5.54803,4.60911 z m 5.08317,-6.40663 c -0.17305,-0.911928 -0.52203,0.639025 0,0 z m 0.50632,-1.34072 c -0.13358,0.01957 0.0945,0.180814 0,0 z m 0.82884,-1.17074 c -0.0795,-0.11157 -0.0795,0.11157 0,0 z m -6.62237,4.2216 c 0.37421,-1.260275 1.16058,-3.174266 -1.11691,-1.89045 -1.27868,-1.067634 3.39427,-2.348117 3.29564,-4.36742 0.70895,-1.651832 1.75494,-3.090909 2.74981,-4.50375 2.00775,-0.325684 0.64207,1.339014 -0.0635,2.53043 -1.55242,2.485258 0.47961,0.173562 1.84695,0.7162 2.39067,0.451469 -1.75672,1.416808 -2.35557,2.38236 -2.51608,0.76369 -2.43583,3.685225 -4.27461,5.16421 l -0.0819,-0.0318 z m 3.57641,-5.52693 c -0.0795,-0.11157 -0.0795,0.11157 0,0 z m 0.99461,-0.0292 c -0.24937,-0.110278 -0.24219,0.202798 0,0 z m -0.80813,-0.15737 c -0.15396,-0.327371 -0.15396,0.327371 0,0 z m 6.52713,-8.9515 c 0.0795,-0.11157 0.0795,0.11157 0,0 z"
       id="path6" /><path
       d="m 24.292208,-98.684094 c -1.84949,-0.702081 -3.53738,-0.311051 -4.58844,-2.162046 1.02117,-0.65839 5.84431,-1.16066 4.86688,-2.0154 -1.64241,1.30969 -5.31788,-0.63901 -1.57833,-0.93356 3.31012,-2.49368 -1.89825,-0.41018 -3.5372,-1.22548 1.36109,-1.08146 5.12689,-0.63095 7.28862,-1.64204 1.81986,-0.49555 3.99882,-0.84246 5.59114,-1.27759 2.16044,-0.52949 4.73417,-0.93162 7.039042,-1.47374 1.868045,-0.56684 3.65834,-0.84699 5.425029,-1.22115 1.459963,-0.53962 4.699044,-1.0259 5.194296,-0.87312 -1.954037,0.56651 -3.977014,1.11979 -5.941755,1.64672 -1.001628,0.13843 -5.243893,0.9772 -4.03094,0.98128 1.817332,-0.11152 -0.800137,1.35479 1.53353,0.72395 1.706961,-1.01016 3.296107,-1.07232 5.303099,-1.72856 2.049748,-0.79797 3.982908,-1.35081 6.173401,-1.18594 2.029132,-1.10899 4.821561,-0.42393 6.62845,-1.24341 1.635385,0.15508 3.630918,-0.86864 5.37566,-1.23636 1.362628,-0.60026 5.220808,-0.56562 1.64664,0.0232 -2.481284,0.67208 1.685411,0.34703 2.26995,0.86649 1.076224,-1.11598 6.62582,-1.99999 3.5711,0.16493 -2.698906,1.06813 -5.62526,2.28907 -8.495084,2.32388 -0.939962,1.00963 -3.780587,0.61585 -1.071716,-0.15538 1.414082,-0.6007 4.756559,-1.46883 4.935042,-2.16037 -2.761837,0.32618 -5.451223,1.14136 -8.129496,1.82936 -1.16015,1.52645 -3.47033,1.93354 -5.354896,2.45322 -3.338823,0.93666 -6.362465,2.68731 -9.77542,3.3831 -2.422284,0.90952 -4.778672,1.04476 -7.226352,1.97446 -3.58568,1.14341 -7.22843,1.87494 -10.88871,2.73653 -0.85342,0.376568 -1.13064,1.535318 -2.22354,1.427046 z m 0.4737,-2.017976 c -0.11968,0.0271 0.0895,0.2724 0,0 z m 2.05036,-4.69203 c -0.18082,-0.0943 -0.0191,0.13356 0,0 z m 2.00994,-0.64601 c -0.19292,-0.22545 -0.11778,0.31297 0,0 z m 1.16556,0.0266 c 0.60828,-0.589 -0.96555,0.13352 0,0 z m -4.17011,-0.0644 c -0.18082,-0.0943 -0.0191,0.13356 0,0 z m 4.49647,-0.33153 c -0.15344,-0.22125 -0.0752,0.22709 0,0 z m 1.83567,-0.0652 c 2.13984,0.0385 4.00658,-0.88062 6.102623,-1.16494 0.267414,-0.60145 -4.244403,0.618 -5.809553,0.89485 -0.94061,-0.47705 -0.786,0.63763 -0.29307,0.27009 z m -1.71132,-0.12131 c -0.15907,-0.23026 -0.23921,0.22272 0,0 z m 1.61624,-0.24865 c -0.23898,-0.22266 -0.15933,0.23002 0,0 z m -3.06282,-0.0997 c -0.24616,-0.13085 -0.058,0.14017 0,0 z m 10.358392,-0.92597 c -0.166794,-0.52101 -0.297052,0.49409 0,0 z m -0.27113,-0.0621 c -0.07946,-0.11157 -0.07946,0.11157 0,0 z m 0.93244,-0.21757 c -0.361079,-0.50229 -0.512589,0.4519 0,0 z m 8.84456,-0.40579 c 1.535907,-0.94243 -1.737223,0.47533 0,0 z m -8.78239,-0.21584 c -0.07546,-0.22711 -0.152836,0.22138 0,0 z m 10.03426,-0.28639 c 0.419167,-0.49703 -0.755408,0.10212 0,0 z m 2.92949,-1.52078 c 1.591195,-0.0412 3.887222,-0.43794 4.95789,-0.96437 -1.377911,0.37128 -5.280905,0.32208 -5.304624,1.012 l 0.346734,-0.0468 z m 7.70548,-1.54964 c -0.259005,-0.30985 -0.3303,0.35798 0,0 z m 2.65748,-0.42996 c 0.138055,-0.40635 -0.678921,0.20772 0,0 z m -45.225082,6.69787 c -0.75669,-1.4843 -1.10332,-3.71008 -1.78596,-5.36603 -1.91315,-2.00484 0.0205,-2.6008 1.44522,-0.78772 1.87238,1.00028 3.52038,2.96318 4.3047,4.89861 0.30541,1.21284 -1.56359,0.57034 -2.41993,1.30001 -0.50538,-0.0679 -1.16336,0.56169 -1.54403,-0.0449 z m 1.69523,-2.04082 c -0.15349,-0.22143 -0.0749,0.22719 0,0 z m -1.76129,-3.6469 c -0.13358,0.0196 0.0945,0.18081 0,0 z m 8.24506,4.00763 c -0.89715,-0.70689 -1.94131,-0.4817 -2.81443,-1.23523 -0.20194,0.23419 -0.83071,-1.31293 0.0797,-2.00842 0.88254,-0.73182 1.11677,-2.66379 0.35366,-3.95025 -1.65222,-1.71391 -0.19901,-2.25745 0.97312,-0.78877 0.48149,1.73969 1.05629,3.51753 2.13643,4.92991 2.71468,1.28811 0.80561,1.9444 -0.42282,3.12101 l -0.30573,-0.0682 z m 1.1623,-0.95128 c -0.0795,-0.11157 -0.0795,0.11157 0,0 z m -3.48114,-0.21757 c -0.23898,-0.22265 -0.15933,0.23002 0,0 z m -0.40406,-0.43514 c -0.34655,-0.0852 0.025,0.39554 0,0 z m 1.09196,-1.16937 c 0.24928,-1.65225 -0.69658,1.82653 0,0 z m 0.57681,-3.65095 c -0.19927,-0.24476 0.0678,0.30812 0,0 z m -1.04744,-1.21 c -0.41653,-0.25089 0.10171,0.56476 0,0 z m 16.732902,6.52605 c 0.530624,-0.49743 1.056022,0.0677 0,0 z m 0.74176,-0.0971 c -0.210126,-0.55013 0.402024,0.25511 0,0 z m 16.43562,-0.0125 c 1.580331,-0.84335 2.834778,-0.3386 0,0 z m -23.746302,-0.23065 c 0.0795,-0.11157 0.0795,0.11157 0,0 z m 9.448792,-0.24866 c 0.07946,-0.11157 0.07946,0.11157 0,0 z m 16.22457,-0.02 c 1.705694,-0.80586 1.658113,-0.0521 0,0 z m -28.442452,-0.41235 c -2.18733,-1.03586 -0.56173,-2.11311 -0.68684,-3.73256 1.75096,-0.68532 -1.44059,-2.89324 0.35147,-3.27131 1.44628,-0.61779 0.98058,2.81792 2.09026,3.63169 0.73022,1.1062 1.17206,3.94442 0.008,2.04828 -0.86901,0.92603 -1.15354,-2.42881 -1.13772,0.36276 0.0108,0.22932 -0.33612,1.38078 -0.62562,0.96114 z m 0.1957,-2.49513 c -0.21174,-1.29901 -0.35748,0.60701 0,0 z m -0.30684,-0.75054 c -0.13358,0.0196 0.0945,0.18081 0,0 z m -0.10361,-0.42478 c -0.0795,-0.11157 -0.0795,0.11157 0,0 z m 0.59703,-0.44939 c -0.28537,-0.0215 0.1616,0.33856 0,0 z m 2.26248,3.74912 c 0.14309,-0.82864 0.55201,0.33814 0,0 z m -0.85894,-0.38646 c -0.28699,-0.74206 0.44342,0.33912 0,0 z m -17.16837,-0.6754 c 0.0795,-0.11157 0.0795,0.11157 0,0 z m 26.512582,-0.046 c -1.547037,-0.81625 -1.777355,-2.41379 -1.280925,-3.83697 0.47497,-1.54171 0.260948,-3.97023 1.716265,-5.16166 0.42479,2.67289 -0.294488,5.42553 -0.04284,8.13603 -0.0328,0.29083 -0.01641,0.80806 -0.3925,0.8626 z m -0.0311,-0.20273 c -0.07946,-0.11157 -0.07946,0.11157 0,0 z m 0.31082,-1.55408 c -0.07946,-0.11157 -0.07946,0.11157 0,0 z m -0.71488,-3.45005 c -0.346583,-0.0852 0.02505,0.39557 0,0 z m -1.2492,4.03099 c 0.04478,-0.11903 0.203704,0.19916 0,0 z m -0.21163,-0.18055 c -0.290029,-0.96109 0.835426,-0.10571 -2.3e-4,-3.4e-4 z m 14.67049,-0.42393 c 0.321615,-0.41317 1.09205,-0.0137 0,0 z m 0.80812,-0.22511 c 0.07946,-0.11157 0.07946,0.11157 0,0 z m 0.34022,-0.096 c 0.220261,-0.20262 0.344401,0.1079 0,0 z m -24.335182,-2.57704 c 0.0795,-0.11157 0.0795,0.11157 0,0 z m 10.539312,-4.44037 c -0.01326,-0.44637 0.390893,0.34636 0,0 z"
       style="fill:#d45500;fill-opacity:1;stroke-width:1"
       id="path1-2" /><path
       d="m 25.733148,-57.093652 c -0.51136,-1.898678 1.5676,-2.525263 2.00634,-4.502052 1.66064,-1.6216 -1.04878,2.814176 -1.08203,3.740872 -0.23907,0.298152 -0.46215,0.85636 -0.92431,0.76118 z m 0.10917,-1.41953 c -0.0795,-0.11157 -0.0795,0.11157 0,0 z m 0.1865,-2.29954 c 0.0795,-0.11157 0.0795,0.11157 0,0 z m 7.08591,-18.490926 c 0.60576,-1.773853 1.90058,-3.304193 2.57224,-4.94033 0.98542,-2.009077 2.31842,-3.781358 3.391212,-5.72333 1.047347,-1.676237 1.861907,-3.685638 2.98092,-5.5636 1.353428,-1.943583 1.738522,-4.895042 3.25786,-6.497052 0.626952,0.6141 0.829672,2.627341 1.73662,0.51667 0.337231,-1.59767 1.409043,-3.90387 3.077,-4.15996 0.223391,1.17483 -1.740189,3.98858 -1.37768,4.21444 1.609229,-1.35418 1.319791,-3.8725 3.00682,-5.20196 1.940346,-1.16874 4.145063,0.50998 1.62011,1.90987 -1.105929,2.0344 -2.503305,3.85808 -3.54435,5.952832 -0.720453,1.91455 -2.189829,3.725296 -1.98914,5.67834 -0.54776,1.791534 -1.70595,3.587814 -2.42443,4.99418 -1.026144,2.185005 -2.374732,4.208075 -3.57336,6.29952 -0.885816,2.016899 -2.077188,3.80994 -3.06587,5.78899 -1.046042,1.614292 -1.771672,3.479107 -2.987052,4.98301 -0.31262,-1.563322 0.94728,-3.225536 1.75895,-4.523109 0.608227,-1.794364 1.894606,-2.664346 2.334922,-4.441581 1.182952,-1.510211 1.603457,-3.740588 2.976537,-4.970977 0.329206,-1.571106 1.352411,-2.037634 1.810083,-3.533193 0.643527,-1.564092 -1.425583,1.53253 -1.868076,2.110161 -2.215988,3.695827 -5.226836,7.07197 -6.409256,11.317689 -0.39325,2.059398 -2.63414,3.181088 -3.40455,4.98675 -0.5489,2.065135 -1.94561,3.65897 -3.13967,5.387491 -2.22308,2.453322 0.33013,-2.822884 0.65058,-3.595771 -1.22482,1.288656 -2.86179,3.478779 -3.32718,5.605201 -0.16717,0.648755 -0.79728,1.842386 -1.54239,1.68061 v -5e-6 c 0.31356,-1.525564 1.62183,-3.003224 1.76105,-4.850266 1.57197,-2.20179 0.38347,-1.244124 -0.7806,-0.0024 -0.0861,-1.988972 1.96787,-3.594945 2.36691,-5.56113 0.64407,-0.652906 0.72475,-1.222481 0.56816,-1.782077 0.7895,-2.220509 2.78178,-3.880291 3.56363,-6.079013 z m -4.35065,11.041895 c 1.14996,-1.093847 1.87378,-4.984119 0.57725,-1.67758 -0.0743,0.261028 -1.24824,1.85613 -0.57725,1.67758 z m 2.20679,-0.5153 c 0.23669,-1.112594 -1.11709,0.565372 0,0 z m 4.94197,-2.63449 c -0.15866,-0.222781 -0.15866,0.222781 0,0 z m -5.28856,-0.57038 c 1.06754,-1.658047 1.82648,-3.000531 2.92642,-4.66827 0.52473,-1.680431 1.71839,-2.98403 2.67293,-4.42664 0.36392,-1.323619 0.52293,-1.973451 1.28759,-3.5327 0.576275,-1.204277 1.320087,-2.479855 1.750218,-3.83141 0.202334,-1.542203 -2.010368,2.942355 -2.450478,3.804579 -0.87594,1.481605 -1.32477,3.433694 -1.73543,3.623911 -0.42785,-0.569241 -2.00753,3.383006 -2.75905,4.49574 -0.34614,1.126722 -2.58852,4.433785 -1.6922,4.53479 z m 4.35611,-8.35003 c 0.15394,-0.327706 0.15394,0.327706 0,0 z m -3.41897,7.0866 c -0.0795,-0.11157 -0.0795,0.11157 0,0 z m -1.32204,-0.52717 0.0616,0.05292 3.2e-4,3.9e-5 c 0.68314,-1.220307 1.45464,-1.688931 0.88195,-2.113777 z m 7.35187,-7.181001 c -0.0795,-0.11157 -0.0795,0.11157 0,0 z m -2.23787,-0.99461 c -0.0795,-0.11157 -0.0795,0.11157 0,0 z m 3.658222,-1.38313 c 0.635984,-2.015418 -0.47277,0.61196 0,0 z m 0.90412,-5.33546 c 0.241489,-1.102318 -0.464753,0.30539 0,0 z m 5.5607,-1.05624 c 1.163578,-1.520605 -0.923008,0.211092 0,0 z m 0.44469,-1.05222 c -0.07946,-0.11157 -0.07946,0.11157 0,0 z m -3.57532,-0.3376 c 0.666156,-1.391343 -0.525485,0.680838 0,0 z m 3.88613,-0.12862 c -0.45604,-0.200483 0.158234,0.250442 0,0 z m 0.54135,-0.79258 c 1.309201,-2.026447 0.15687,-1.013177 0,0 z m -3.82483,-0.12433 c 0.803471,-1.018158 -0.267815,-0.626094 -0.129956,0.113667 l 0.129916,-0.113667 z m 4.61334,-1.2328 c 0.315109,-1.008086 -0.698611,0.617416 0,0 z m 0.34855,-0.6232 c -0.249262,-0.110393 -0.24237,0.202429 0,0 z m 2.46683,-7.122686 c -0.119852,0.0269 0.08929,0.27247 0,0 z m -27.834022,37.608137 c -0.53488,-1.796367 2.10916,-0.418085 0,0 z m 10.44802,-2.072021 c -0.0639,-0.634883 0.11751,-2.482702 0.59939,-1.45037 0.22377,-0.671734 -0.12716,1.974036 -0.59939,1.45037 z m 0.4973,-1.11909 c 0.0795,-0.11157 0.0795,0.11157 0,0 z m 1.92707,-4.05791 c -0.29586,-0.623671 0.63381,0.304465 0,0 z m -6.68254,-0.82043 c 0.23898,-0.222651 0.15933,0.230023 0,0 z m 11.796922,-2.68334 c -0.426677,-1.546533 1.885799,-0.131672 0,0 z m 9.2141,-5.44224 c -2.240567,-0.328963 -3.515016,-2.187223 -5.72388,-2.44896 -2.195903,-1.336196 2.464118,-0.46071 3.28724,-0.703026 1.396217,-0.787462 5.044075,2.748726 2.10431,1.556926 -3.406269,-0.95646 2.016559,1.214818 0.33233,1.59506 z m -4.07168,-1.85133 c 0.07946,-0.11157 0.07946,0.11157 0,0 z m -1.24327,-0.43507 c 0.07946,-0.11157 0.07946,0.11157 0,0 z m 8.04881,-5.62811 c -1.65173,0.543364 -6.7195,-2.401984 -2.79177,-1.36074 0.713787,0.624078 3.407903,0.396197 2.79177,1.36074 z m 1.69388,-0.70582 c -1.664021,-0.50742 -3.045508,-2.03799 -4.87384,-1.94793 -2.966492,0.513015 -1.376861,-1.464515 0.441501,-0.905154 0.561371,-0.343591 5.563258,2.255735 4.432339,2.853084 z m 5.23872,-4.04742 c -1.948284,-1.594354 -4.358807,-2.091048 -6.63592,-2.87289 -0.0955,-1.893473 2.667208,-2.21453 3.5859,-0.88839 0.887551,0.581679 4.050261,2.752385 3.05002,3.76128 z m -4.07169,-3.26356 c -0.238697,-0.222919 -0.159609,0.230133 0,0 z m -9.85294,-6.309506 c 0.07946,-0.11157 0.07946,0.11157 0,0 z m 10.70759,-0.46554 c -0.741701,-1.98343 5.606899,-2.05667 1.13999,-2.42885 -2.037111,1.15994 -2.950465,-1.72081 -0.255705,-1.06549 2.62059,1.46944 6.037957,0.47011 8.494695,1.71815 -0.509327,0.78913 -2.85301,-0.57474 -2.310024,1.11842 -2.359411,-0.26229 -4.924486,0.24195 -7.068956,0.65777 z m 6.49087,-1.59621 c -0.180823,-0.0943 -0.01912,0.13356 0,0 z"
       style="fill:#5500d4;stroke-width:1"
       id="path1-1" /><path
       d="m 33.847408,-90.406074 c -1.8683,-0.545115 -3.92722,-4.533138 -1.65865,-5.664356 1.94643,-0.04095 5.41331,-0.251784 5.09899,2.643088 0.5156,2.321372 -1.60026,2.898632 -3.44034,3.021268 z"
       style="fill:#333333;fill-opacity:1;stroke-width:1"
       id="path1-4" /></g></svg>
