<?xml version="1.0" encoding="UTF-8" standalone="no"?>
<!-- Created with Inkscape (http://www.inkscape.org/) -->

<svg
   width="36"
   height="36"
   viewBox="0 0 36 36"
   version="1.1"
   id="svg1"
   sodipodi:docname="moon_icon.svg"
   inkscape:version="1.3.2 (091e20e, 2023-11-25, custom)"
   xmlns:inkscape="http://www.inkscape.org/namespaces/inkscape"
   xmlns:sodipodi="http://sodipodi.sourceforge.net/DTD/sodipodi-0.dtd"
   xmlns="http://www.w3.org/2000/svg"
   xmlns:svg="http://www.w3.org/2000/svg">
  <sodipodi:namedview
     id="namedview1"
     pagecolor="#ffffff"
     bordercolor="#000000"
     borderopacity="0.25"
     inkscape:showpageshadow="2"
     inkscape:pageopacity="0.0"
     inkscape:pagecheckerboard="0"
     inkscape:deskcolor="#d1d1d1"
     inkscape:current-layer="svg1" />
  <defs
     id="defs1" />
  <g
     id="g4"
     transform="translate(-46.284485,-6.0000009)">
    <circle
       style="fill:#666666;fill-opacity:1;stroke:none;stroke-width:1;stroke-linecap:square"
       id="circle2"
       cx="50.61911"
       cy="46.327106"
       r="18"
       transform="rotate(-21.992417)" />
    <path
       id="path27"
       style="fill:#aaeeff;fill-opacity:1;stroke:none;stroke-width:1;stroke-linecap:square"
       d="M 56.583554,32.577783 A 15,15 0 0 0 55.55661,32.194624 15,15 0 0 1 59.956001,42.753 15,15 0 0 1 44.955619,57.754554 15,15 0 0 1 39.753557,56.782616 15,15 0 0 0 50.352831,61.221349 15,15 0 0 0 65.352481,46.221606 15,15 0 0 0 56.583554,32.577783 Z"
       transform="rotate(-21.992417)" />
  </g>
</svg>
