<?xml version="1.0" encoding="UTF-8" standalone="no"?>
<!-- Created with Inkscape (http://www.inkscape.org/) -->

<svg
   width="36"
   height="36"
   viewBox="0 0 36 36"
   version="1.1"
   id="svg1"
   xmlns="http://www.w3.org/2000/svg"
   xmlns:svg="http://www.w3.org/2000/svg">
  <defs
     id="defs1" />
  <g
     id="layer1"
     transform="translate(-6,-5.9999995)">
    <g
       id="g3">
      <circle
         style="fill:#b7bec8;fill-opacity:1;stroke:none;stroke-width:1;stroke-linecap:square"
         id="path27-3"
         cx="13.265989"
         cy="31.241215"
         r="18"
         transform="rotate(-21.992417)" />
      <path
         id="path1"
         style="fill:#ffe680;stroke:none;stroke-width:0.999995;stroke-linecap:square"
         d="M 24.000006,9.0000019 C 22.611849,10.553723 23.15648,11.888127 22.723151,12.999026 22.22038,14.28795 21.147607,14.89893 20.660163,15.119387 a 9.5117181,9.5117181 0 0 0 -0.339357,0.126953 c -0.06437,-0.03675 -1.228712,-0.692499 -2.633056,-0.753174 -1.201231,-0.0519 -3.379298,0.218887 -4.294434,-1.099854 0.117071,2.080222 1.445935,2.638536 1.92505,3.73047 0.502893,1.146128 0.282595,2.235268 0.09643,2.802734 a 9.5117181,9.5117181 0 0 0 -0.201415,0.483398 c -0.04658,0.0126 -1.35209,0.371887 -2.398682,1.331787 -0.886098,0.812699 -2.235108,2.543693 -3.8146967,2.258301 1.5537197,1.388157 2.8881247,0.843526 3.9990237,1.276856 1.288924,0.50277 1.899904,1.575542 2.120361,2.062988 a 9.5117181,9.5117181 0 0 0 0.126953,0.339355 c -0.03675,0.06437 -0.692499,1.228713 -0.753174,2.633056 -0.0519,1.201232 0.218887,3.3793 -1.099854,4.294435 2.080222,-0.117072 2.638536,-1.445935 3.73047,-1.925049 1.146128,-0.502895 2.234047,-0.282596 2.801513,-0.09644 a 9.5117181,9.5117181 0 0 0 0.484619,0.201416 c 0.0126,0.04658 0.371887,1.35209 1.331787,2.398682 0.812699,0.886097 2.543693,2.235108 2.258301,3.814697 1.388156,-1.553721 0.843527,-2.888125 1.276856,-3.999024 0.502771,-1.288923 1.575542,-1.899905 2.062988,-2.120361 a 9.5117181,9.5117181 0 0 0 0.339355,-0.126953 c 0.06437,0.03675 1.228713,0.6925 2.633056,0.753175 1.201231,0.0519 3.379299,-0.218887 4.294435,1.099853 -0.117073,-2.080221 -1.445935,-2.638537 -1.925049,-3.730469 -0.502894,-1.146128 -0.282596,-2.23527 -0.09644,-2.802735 a 9.5117181,9.5117181 0 0 0 0.201416,-0.483398 c 0.04658,-0.0126 1.35209,-0.371886 2.398682,-1.331787 0.886097,-0.8127 2.235108,-2.543693 3.814697,-2.258301 -1.553721,-1.388157 -2.888125,-0.843526 -3.999024,-1.276855 -1.133239,-0.442044 -1.74292,-1.325404 -2.023925,-1.864015 a 9.5117181,9.5117181 0 0 0 -0.213623,-0.555419 c 0.08267,-0.148302 0.685244,-1.269704 0.743409,-2.615967 0.0519,-1.201233 -0.21889,-3.379299 1.099853,-4.294434 -2.080224,0.11707 -2.638533,1.445938 -3.730469,1.92505 -1.115761,0.489571 -2.173768,0.293503 -2.752686,0.111083 a 9.5117181,9.5117181 0 0 0 -0.53955,-0.239258 C 27.538906,15.031198 27.17112,13.809949 26.258307,12.814699 25.445608,11.928601 23.714613,10.579591 24.000006,9.0000019 Z" />
    </g>
  </g>
</svg>
