<svg xmlns="http://www.w3.org/2000/svg" version="1.1" xmlns:xlink="http://www.w3.org/1999/xlink" xmlns:svgjs="http://svgjs.dev/svgjs" width="64" height="64"><svg width="64" height="64" viewBox="0 0 64 64" version="1.1" id="SvgjsSvg1028" xml:space="preserve" xmlns="http://www.w3.org/2000/svg" xmlns:svg="http://www.w3.org/2000/svg"><defs id="SvgjsDefs1027"></defs><g id="SvgjsG1026" transform="matrix(0.9335924,0,0,0.9335924,-627.4625,-287.42002)" style="stroke-width:1.07113"><path style="fill:none;stroke:#ff6600;stroke-width:10.7113;stroke-linecap:butt;stroke-opacity:1" d="m 706.3709,323.30817 h 25 l -12.5,21.65064" id="SvgjsPath1025"></path><path style="fill:none;stroke:#44aa00;stroke-width:10.7113;stroke-linecap:butt;stroke-opacity:1" d="m 693.8709,344.95881 -12.5,-21.65064 h 25" id="SvgjsPath1024"></path><path style="fill:none;stroke:#9955ff;stroke-width:10.7113;stroke-linecap:butt;stroke-opacity:1" d="m 718.8709,344.95881 -12.5,21.65063 -12.5,-21.65063" id="SvgjsPath1023"></path></g><g id="SvgjsG1022" transform="translate(2.673828,0.84375)"><path id="SvgjsPath1021" style="color:#000000;fill:#ffffff;-inkscape-stroke:none" d="m 45.410156,33.080078 c -4.147856,0 -7.55664,3.405972 -7.55664,7.554688 v 3.509765 c -1.771384,0.926503 -2.976563,2.777753 -2.976563,4.921875 v 8.533203 c 0,3.076116 2.477209,5.556641 5.554688,5.556641 h 15.339843 c 3.077479,0 5.554688,-2.480524 5.554688,-5.556641 v -8.533203 c 0,-2.144122 -1.205179,-3.995373 -2.976563,-4.921875 v -3.509765 c 0,-4.148716 -3.408784,-7.554688 -7.55664,-7.554688 z"></path><path id="SvgjsPath1020" style="color:#000000;fill:#999999;-inkscape-stroke:none" d="m 45.410156,35.080078 c -3.043177,0 -5.55664,2.51151 -5.55664,5.554688 v 2.876953 h 4 v -2.876953 c 0,-0.896371 0.66027,-1.554688 1.55664,-1.554688 h 5.382813 c 0.89637,0 1.55664,0.658317 1.55664,1.554688 v 2.876953 h 4 v -2.876953 c 0,-3.043178 -2.513463,-5.554688 -5.55664,-5.554688 z M 40.43175,45.511112 h 15.339685 c 1.969777,0 3.555555,1.585778 3.555555,3.555556 v 8.533333 c 0,1.969778 -1.585778,3.555556 -3.555555,3.555556 H 40.43175 c -1.969778,0 -3.555556,-1.585778 -3.555556,-3.555556 v -8.533333 c 0,-1.969778 1.585778,-3.555556 3.555556,-3.555556 z"></path></g></svg><style>@media (prefers-color-scheme: light) { :root { filter: none; } }
@media (prefers-color-scheme: dark) { :root { filter: none; } }
</style></svg>